<svg width="60" height="60" viewBox="0 0 60 60" fill="none" xmlns="http://www.w3.org/2000/svg">
<rect width="60" height="60" rx="15" fill="#31502C"/>
<path d="M27.85 14V15.65C24.9955 15.98 22.3885 17.135 20.26 18.851L19.006 17.597L16.663 19.94L17.95 21.1775C16.1418 23.3686 14.9969 26.0304 14.65 28.85H13V32.15H14.65C14.9965 34.922 16.135 37.529 17.95 39.674L16.663 40.928L19.006 43.271L20.2435 42.05C22.4281 43.8272 25.0597 44.9688 27.85 45.35V47H31.15V45.35C33.9352 44.9684 36.5613 43.8266 38.74 42.05L39.994 43.271L42.337 40.928L41.05 39.6905C42.865 37.5455 44.0035 34.922 44.35 32.15H46V28.85H44.35C44.0036 26.0352 42.8585 23.3785 41.05 21.194L42.337 19.94L39.994 17.597L38.7565 18.851C36.5744 17.0868 33.937 15.9769 31.15 15.65V14H27.85ZM27.85 18.95V23.9L26.2 24.725L22.5865 21.1775C24.088 20.0555 25.8865 19.2305 27.85 18.95ZM31.15 18.95C33.064 19.247 34.879 20.006 36.43 21.1775L32.8 24.725L31.15 23.9V18.95ZM20.26 23.504L23.725 27.2L22.9 28.85H17.95C18.214 26.936 19.105 25.055 20.2435 23.4875L20.26 23.504ZM38.74 23.504C39.9445 25.0715 40.7365 26.903 41.05 28.85H36.1L35.275 27.2L38.7565 23.504H38.74ZM29.5 27.2C31.348 27.2 32.8 28.652 32.8 30.5C32.8 32.348 31.348 33.8 29.5 33.8C27.652 33.8 26.2 32.348 26.2 30.5C26.2 28.652 27.652 27.2 29.5 27.2ZM17.95 32.15H22.9L23.8405 33.8L20.2435 37.3475C19.0555 35.846 18.2635 34.064 17.95 32.15ZM36.1 32.15H41.05C40.7328 34.0522 39.9443 35.8447 38.7565 37.364L35.275 33.8L36.1 32.15ZM26.2 36.275L27.85 37.1V42.05C25.9192 41.7212 24.1029 40.9096 22.57 39.6905L26.2 36.275ZM32.8 36.275L36.4135 39.6905C34.912 40.8125 33.1135 41.7695 31.15 42.05V37.1L32.8 36.275Z" fill="#F3CD00"/>
</svg>
