<svg width="60" height="60" viewBox="0 0 60 60" fill="none" xmlns="http://www.w3.org/2000/svg">
<rect width="60" height="60" rx="15" fill="#31502C"/>
<path d="M37.7503 16.2108C40.239 17.6477 42.3092 19.7097 43.7561 22.1926C45.2029 24.6754 45.9762 27.4931 45.9995 30.3667C46.0227 33.2403 45.295 36.0701 43.8884 38.5761C42.4818 41.082 40.4452 43.1771 37.9801 44.654C35.5149 46.131 32.7068 46.9385 29.8337 46.9966C26.9605 47.0548 24.122 46.3615 21.5992 44.9856C19.0763 43.6096 16.9565 41.5986 15.4497 39.1516C13.9429 36.7047 13.1013 33.9066 13.0083 31.0344L13 30.4998L13.0083 29.9652C13.1007 27.1157 13.9299 24.3387 15.415 21.905C16.9002 19.4713 18.9907 17.4639 21.4826 16.0786C23.9745 14.6933 26.7829 13.9774 29.6339 14.0005C32.4849 14.0237 35.2812 14.7852 37.7503 16.2108ZM22.9001 19.0686C20.3838 20.5216 18.4172 22.7642 17.3053 25.4487C16.1934 28.1332 15.9984 31.1096 16.7504 33.9163C17.5025 36.7229 19.1596 39.203 21.4648 40.9719C23.77 42.7408 26.5945 43.6997 29.5002 43.6998L29.8302 43.6916C31.5214 43.6069 33.1154 42.8755 34.2825 41.6486C35.4495 40.4217 36.1004 38.7931 36.1004 37.0998C36.1004 35.4065 35.4495 33.778 34.2825 32.551C33.1154 31.3241 31.5214 30.5927 29.8302 30.5081L29.5002 30.4998C27.7783 30.4998 26.1246 29.827 24.8919 28.6248C23.6592 27.4225 22.9451 25.7862 22.9021 24.0649C22.859 22.3435 23.4904 20.6735 24.6614 19.4112C25.8325 18.1489 27.4505 17.3941 29.1702 17.3081L29.5002 17.2998C27.1831 17.2999 24.9068 17.91 22.9001 19.0686ZM29.5002 21.4248C28.8438 21.4248 28.2142 21.6856 27.7501 22.1497C27.2859 22.6139 27.0252 23.2434 27.0252 23.8998C27.0252 24.5562 27.2859 25.1858 27.7501 25.6499C28.2142 26.1141 28.8438 26.3748 29.5002 26.3748C30.1566 26.3748 30.7862 26.1141 31.2503 25.6499C31.7145 25.1858 31.9752 24.5562 31.9752 23.8998C31.9752 23.2434 31.7145 22.6139 31.2503 22.1497C30.7862 21.6856 30.1566 21.4248 29.5002 21.4248Z" fill="#F3CD00"/>
<path d="M29.5004 34.6248C30.1568 34.6248 30.7864 34.8855 31.2505 35.3497C31.7147 35.8138 31.9755 36.4433 31.9755 37.0998C31.9755 37.7562 31.7147 38.3857 31.2505 38.8498C30.7864 39.314 30.1568 39.5748 29.5004 39.5748C28.844 39.5748 28.2145 39.314 27.7503 38.8498C27.2862 38.3857 27.0254 37.7562 27.0254 37.0998C27.0254 36.4433 27.2862 35.8138 27.7503 35.3497C28.2145 34.8855 28.844 34.6248 29.5004 34.6248Z" fill="#F3CD00"/>
</svg>
