<svg width="60" height="60" viewBox="0 0 60 60" fill="none" xmlns="http://www.w3.org/2000/svg">
<rect width="60" height="60" rx="15" fill="#31502C"/>
<path d="M44.696 31.5843C43.7747 35.8885 40.6096 39.4242 36.4362 40.8121C35.1648 41.2368 33.8334 41.4537 32.493 41.4545C29.8753 41.4579 27.323 40.6359 25.1988 39.1052C23.0746 37.5746 21.4866 35.4131 20.6603 32.9279C20.1386 31.3766 19.93 29.7371 20.0467 28.1045C20.1634 26.4719 20.603 24.8788 21.3401 23.4176C22.0701 21.9511 23.0834 20.6441 24.3216 19.572C25.5597 18.4999 26.9979 17.684 28.5532 17.1715C31.5197 16.1846 34.7483 16.3469 37.601 17.6264L38.218 16.4624C34.0848 13.9079 28.9366 13.2965 24.3078 14.8369C20.1218 16.2293 16.7291 19.1675 14.7546 23.1086C12.78 27.0496 12.4606 31.5242 13.8544 35.7063C14.9493 38.9974 17.0526 41.8599 19.8658 43.8872C22.679 45.9145 26.059 47.0036 29.526 47C31.2959 47 33.052 46.7141 34.7467 46.1509C37.83 45.1312 40.5433 43.2225 42.5455 40.6646C44.5477 38.1067 45.7496 35.0137 46 31.7744L44.696 31.5843ZM36.5622 23.6288L33.2533 17.433L31.5704 24.3505L24.6879 25.704L30.9884 29.2833L29.9048 36.4114L35.2549 31.5427L41.8846 34.7251L38.4985 28.1047L43.8598 22.927L36.5622 23.6288Z" fill="#F3CD00"/>
</svg>
